{
  "accessors": [
    {
      "bufferView": 2,
      "componentType": 5126,
      "count": 38082,
      "max": [
        2.6482348442077637,
        2.329059362411499,
        4.329516887664795
      ],
      "min": [
        -2.4887120723724365,
        -2.6887693405151367,
        -2.029059410095215
      ],
      "type": "VEC3"
    },
    {
      "bufferView": 2,
      "byteOffset": 456984,
      "componentType": 5126,
      "count": 38082,
      "max": [
        0.9999948740005493,
        0.9999997615814209,
        0.9999252557754517
      ],
      "min": [
        -0.9998410940170288,
        -0.9999533295631409,
        -0.9999565482139587
      ],
      "type": "VEC3"
    },
    {
      "bufferView": 1,
      "componentType": 5126,
      "count": 38082,
      "max": [
        0.9850476980209351,
        0.9999525547027588
      ],
      "min": [
        0.00019506800163071603,
        0.0001277919946005568
      ],
      "type": "VEC2"
    },
    {
      "bufferView": 0,
      "componentType": 5125,
      "count": 221184,
      "type": "SCALAR"
    },
    {
      "bufferView": 2,
      "byteOffset": 913968,
      "componentType": 5126,
      "count": 6377,
      "max": [
        -1.471988558769226,
        0.32009047269821167,
        4.742722034454346
      ],
      "min": [
        -1.996754765510559,
        -0.24276740849018097,
        4.297979354858398
      ],
      "type": "VEC3"
    },
    {
      "bufferView": 2,
      "byteOffset": 990492,
      "componentType": 5126,
      "count": 6377,
      "max": [
        0.9999926090240479,
        0.9997166991233826,
        0.9999424815177917
      ],
      "min": [
        -0.999993622303009,
        -0.9997193813323975,
        -0.9999387860298157
      ],
      "type": "VEC3"
    },
    {
      "bufferView": 1,
      "byteOffset": 304656,
      "componentType": 5126,
      "count": 6377,
      "max": [
        0.9997052550315857,
        0.9993923306465149
      ],
      "min": [
        0.00044097501086071134,
        0.06266891956329346
      ],
      "type": "VEC2"
    },
    {
      "bufferView": 0,
      "byteOffset": 884736,
      "componentType": 5125,
      "count": 36864,
      "type": "SCALAR"
    },
    {
      "bufferView": 2,
      "byteOffset": 1067016,
      "componentType": 5126,
      "count": 12628,
      "max": [
        4.0731329917907715,
        0.9771167635917664,
        0.0964723527431488
      ],
      "min": [
        -3.9922964572906494,
        -0.812407910823822,
        -1.8166775703430176
      ],
      "type": "VEC3"
    },
    {
      "bufferView": 2,
      "byteOffset": 1218552,
      "componentType": 5126,
      "count": 12628,
      "max": [
        0.9993417859077454,
        0.999899685382843,
        0.9998354911804199
      ],
      "min": [
        -0.9993451237678528,
        -0.9999997615814209,
        -0.9999953508377075
      ],
      "type": "VEC3"
    },
    {
      "bufferView": 1,
      "byteOffset": 355672,
      "componentType": 5126,
      "count": 12628,
      "max": [
        0.744706928730011,
        0.9992393851280212
      ],
      "min": [
        0.0004880049964413047,
        0.0008697509765625
      ],
      "type": "VEC2"
    },
    {
      "bufferView": 0,
      "byteOffset": 1032192,
      "componentType": 5125,
      "count": 73728,
      "type": "SCALAR"
    },
    {
      "bufferView": 2,
      "byteOffset": 1370088,
      "componentType": 5126,
      "count": 12732,
      "max": [
        1.4434453248977661,
        -1.1042667627334595,
        -0.7805802822113037
      ],
      "min": [
        -1.4120032787322998,
        -1.6959915161132813,
        -1.4256759881973267
      ],
      "type": "VEC3"
    },
    {
      "bufferView": 2,
      "byteOffset": 1522872,
      "componentType": 5126,
      "count": 12732,
      "max": [
        0.9999914765357971,
        0.9999739527702332,
        0.9998052716255188
      ],
      "min": [
        -0.9996446967124939,
        -0.9997239708900452,
        -0.9996000528335571
      ],
      "type": "VEC3"
    },
    {
      "bufferView": 1,
      "byteOffset": 456696,
      "componentType": 5126,
      "count": 12732,
      "max": [
        0.8268832564353943,
        0.999652087688446
      ],
      "min": [
        0.0002525529998820275,
        0.0007905960083007813
      ],
      "type": "VEC2"
    },
    {
      "bufferView": 0,
      "byteOffset": 1327104,
      "componentType": 5125,
      "count": 73728,
      "type": "SCALAR"
    },
    {
      "bufferView": 2,
      "byteOffset": 1675656,
      "componentType": 5126,
      "count": 6274,
      "max": [
        -0.16912688314914703,
        1.5322542190551758,
        4.535117149353027
      ],
      "min": [
        -2.6818935871124268,
        -1.450667381286621,
        3.1954145431518555
      ],
      "type": "VEC3"
    },
    {
      "bufferView": 2,
      "byteOffset": 1750944,
      "componentType": 5126,
      "count": 6274,
      "max": [
        0.9988592267036438,
        0.9970218539237976,
        0.999701201915741
      ],
      "min": [
        -0.9997082948684692,
        -0.9975447654724121,
        -0.9999794363975525
      ],
      "type": "VEC3"
    },
    {
      "bufferView": 1,
      "byteOffset": 558552,
      "componentType": 5126,
      "count": 6274,
      "max": [
        0.9997159838676453,
        0.9997846484184265
      ],
      "min": [
        0.000709342013578862,
        0.42178404331207275
      ],
      "type": "VEC2"
    },
    {
      "bufferView": 0,
      "byteOffset": 1622016,
      "componentType": 5125,
      "count": 36864,
      "type": "SCALAR"
    },
    {
      "bufferView": 2,
      "byteOffset": 1826232,
      "componentType": 5126,
      "count": 14426,
      "max": [
        0.20225079357624054,
        -1.7252899408340454,
        -0.10484416037797928
      ],
      "min": [
        -0.3161492943763733,
        -2.048100471496582,
        -0.9837132692337036
      ],
      "type": "VEC3"
    },
    {
      "bufferView": 2,
      "byteOffset": 1999344,
      "componentType": 5126,
      "count": 14426,
      "max": [
        0.9996592402458191,
        0.9999698400497437,
        0.9999269843101501
      ],
      "min": [
        -0.9996337294578552,
        -0.9999963045120239,
        -0.9999289512634277
      ],
      "type": "VEC3"
    },
    {
      "bufferView": 1,
      "byteOffset": 608744,
      "componentType": 5126,
      "count": 14426,
      "max": [
        0.9998480081558228,
        0.9995540380477905
      ],
      "min": [
        0.0001879860064946115,
        0.017298102378845215
      ],
      "type": "VEC2"
    },
    {
      "bufferView": 0,
      "byteOffset": 1769472,
      "componentType": 5125,
      "count": 73728,
      "type": "SCALAR"
    },
    {
      "bufferView": 2,
      "byteOffset": 2172456,
      "componentType": 5126,
      "count": 12701,
      "max": [
        1.3426432609558105,
        -1.3352038860321045,
        -0.9603576064109802
      ],
      "min": [
        -1.311025857925415,
        -1.6791412830352783,
        -1.3360668420791626
      ],
      "type": "VEC3"
    },
    {
      "bufferView": 2,
      "byteOffset": 2324868,
      "componentType": 5126,
      "count": 12701,
      "max": [
        0.9999451041221619,
        0.9998305439949036,
        0.9998854398727417
      ],
      "min": [
        -0.9997532367706299,
        -0.9997881054878235,
        -0.9998238682746887
      ],
      "type": "VEC3"
    },
    {
      "bufferView": 1,
      "byteOffset": 724152,
      "componentType": 5126,
      "count": 12701,
      "max": [
        0.9999570250511169,
        0.8846259713172913
      ],
      "min": [
        4.600000102072954e-05,
        0.11531299352645874
      ],
      "type": "VEC2"
    },
    {
      "bufferView": 0,
      "byteOffset": 2064384,
      "componentType": 5125,
      "count": 73728,
      "type": "SCALAR"
    }
  ],
  "asset": {
    "extras": {
      "author": "MarisolPerez (https://sketchfab.com/MarisolPerez)",
      "license": "CC-BY-4.0 (http://creativecommons.org/licenses/by/4.0/)",
      "source": "https://sketchfab.com/3d-models/pom-pom-purin-2-46a51214b3604520ab5d0256de4c1f9f",
      "title": "Pom Pom Purin 2"
    },
    "generator": "Sketchfab-15.49.0",
    "version": "2.0"
  },
  "bufferViews": [
    {
      "buffer": 0,
      "byteLength": 2359296,
      "name": "floatBufferViews",
      "target": 34963
    },
    {
      "buffer": 0,
      "byteLength": 825760,
      "byteOffset": 2359296,
      "byteStride": 8,
      "name": "floatBufferViews",
      "target": 34962
    },
    {
      "buffer": 0,
      "byteLength": 2477280,
      "byteOffset": 3185056,
      "byteStride": 12,
      "name": "floatBufferViews",
      "target": 34962
    }
  ],
  "buffers": [
    {
      "byteLength": 5662336,
      "uri": "scene.bin"
    }
  ],
  "images": [
    {
      "uri": "textures/Body_baseColor.png"
    },
    {
      "uri": "textures/Body_metallicRoughness.png"
    },
    {
      "uri": "textures/Bolita_Gorro_baseColor.png"
    },
    {
      "uri": "textures/Bolita_Gorro_metallicRoughness.png"
    },
    {
      "uri": "textures/Ears_baseColor.png"
    },
    {
      "uri": "textures/Eyes_baseColor.png"
    },
    {
      "uri": "textures/Eyes_metallicRoughness.png"
    },
    {
      "uri": "textures/Gorro_baseColor.png"
    },
    {
      "uri": "textures/Gorro_metallicRoughness.png"
    },
    {
      "uri": "textures/Nose_baseColor.png"
    },
    {
      "uri": "textures/Nose_metallicRoughness.png"
    },
    {
      "uri": "textures/Pupils_baseColor.png"
    },
    {
      "uri": "textures/Pupils_metallicRoughness.png"
    }
  ],
  "materials": [
    {
      "doubleSided": true,
      "name": "Body",
      "pbrMetallicRoughness": {
        "baseColorTexture": {
          "index": 0
        },
        "metallicRoughnessTexture": {
          "index": 1
        }
      }
    },
    {
      "doubleSided": true,
      "name": "Bolita_Gorro",
      "pbrMetallicRoughness": {
        "baseColorTexture": {
          "index": 2
        },
        "metallicRoughnessTexture": {
          "index": 3
        }
      }
    },
    {
      "doubleSided": true,
      "name": "Ears",
      "pbrMetallicRoughness": {
        "baseColorTexture": {
          "index": 4
        },
        "metallicFactor": 0.0
      }
    },
    {
      "doubleSided": true,
      "name": "Eyes",
      "pbrMetallicRoughness": {
        "baseColorTexture": {
          "index": 5
        },
        "metallicRoughnessTexture": {
          "index": 6
        }
      }
    },
    {
      "doubleSided": true,
      "name": "Gorro",
      "pbrMetallicRoughness": {
        "baseColorTexture": {
          "index": 7
        },
        "metallicRoughnessTexture": {
          "index": 8
        }
      }
    },
    {
      "doubleSided": true,
      "name": "Nose",
      "pbrMetallicRoughness": {
        "baseColorTexture": {
          "index": 9
        },
        "metallicRoughnessTexture": {
          "index": 10
        }
      }
    },
    {
      "doubleSided": true,
      "name": "Pupils",
      "pbrMetallicRoughness": {
        "baseColorTexture": {
          "index": 11
        },
        "metallicRoughnessTexture": {
          "index": 12
        }
      }
    }
  ],
  "meshes": [
    {
      "name": "Object_0",
      "primitives": [
        {
          "attributes": {
            "NORMAL": 1,
            "POSITION": 0,
            "TEXCOORD_0": 2
          },
          "indices": 3,
          "material": 0,
          "mode": 4
        }
      ]
    },
    {
      "name": "Object_1",
      "primitives": [
        {
          "attributes": {
            "NORMAL": 5,
            "POSITION": 4,
            "TEXCOORD_0": 6
          },
          "indices": 7,
          "material": 1,
          "mode": 4
        }
      ]
    },
    {
      "name": "Object_2",
      "primitives": [
        {
          "attributes": {
            "NORMAL": 9,
            "POSITION": 8,
            "TEXCOORD_0": 10
          },
          "indices": 11,
          "material": 2,
          "mode": 4
        }
      ]
    },
    {
      "name": "Object_3",
      "primitives": [
        {
          "attributes": {
            "NORMAL": 13,
            "POSITION": 12,
            "TEXCOORD_0": 14
          },
          "indices": 15,
          "material": 3,
          "mode": 4
        }
      ]
    },
    {
      "name": "Object_4",
      "primitives": [
        {
          "attributes": {
            "NORMAL": 17,
            "POSITION": 16,
            "TEXCOORD_0": 18
          },
          "indices": 19,
          "material": 4,
          "mode": 4
        }
      ]
    },
    {
      "name": "Object_5",
      "primitives": [
        {
          "attributes": {
            "NORMAL": 21,
            "POSITION": 20,
            "TEXCOORD_0": 22
          },
          "indices": 23,
          "material": 5,
          "mode": 4
        }
      ]
    },
    {
      "name": "Object_6",
      "primitives": [
        {
          "attributes": {
            "NORMAL": 25,
            "POSITION": 24,
            "TEXCOORD_0": 26
          },
          "indices": 27,
          "material": 6,
          "mode": 4
        }
      ]
    }
  ],
  "nodes": [
    {
      "children": [
        1
      ],
      "matrix": [
        1.0,
        0.0,
        0.0,
        0.0,
        0.0,
        2.220446049250313e-16,
        -1.0,
        0.0,
        0.0,
        1.0,
        2.220446049250313e-16,
        0.0,
        0.0,
        0.0,
        0.0,
        1.0
      ],
      "name": "Sketchfab_model"
    },
    {
      "children": [
        2,
        3,
        4,
        5,
        6,
        7,
        8
      ],
      "name": "Pom Pom Purin Base 2.obj.cleaner.materialmerger.gles"
    },
    {
      "mesh": 0,
      "name": "Object_2"
    },
    {
      "mesh": 1,
      "name": "Object_3"
    },
    {
      "mesh": 2,
      "name": "Object_4"
    },
    {
      "mesh": 3,
      "name": "Object_5"
    },
    {
      "mesh": 4,
      "name": "Object_6"
    },
    {
      "mesh": 5,
      "name": "Object_7"
    },
    {
      "mesh": 6,
      "name": "Object_8"
    }
  ],
  "samplers": [
    {
      "magFilter": 9729,
      "minFilter": 9987,
      "wrapS": 10497,
      "wrapT": 10497
    }
  ],
  "scene": 0,
  "scenes": [
    {
      "name": "Sketchfab_Scene",
      "nodes": [
        0
      ]
    }
  ],
  "textures": [
    {
      "sampler": 0,
      "source": 0
    },
    {
      "sampler": 0,
      "source": 1
    },
    {
      "sampler": 0,
      "source": 2
    },
    {
      "sampler": 0,
      "source": 3
    },
    {
      "sampler": 0,
      "source": 4
    },
    {
      "sampler": 0,
      "source": 5
    },
    {
      "sampler": 0,
      "source": 6
    },
    {
      "sampler": 0,
      "source": 7
    },
    {
      "sampler": 0,
      "source": 8
    },
    {
      "sampler": 0,
      "source": 9
    },
    {
      "sampler": 0,
      "source": 10
    },
    {
      "sampler": 0,
      "source": 11
    },
    {
      "sampler": 0,
      "source": 12
    }
  ]
}
