{
  "accessors": [
    {
      "bufferView": 2,
      "componentType": 5126,
      "count": 37956,
      "max": [
        3.5889642238616943,
        2.42305588722229,
        4.000150203704834
      ],
      "min": [
        -3.5144519805908203,
        -2.2547447681427,
        -2.8906188011169434
      ],
      "type": "VEC3"
    },
    {
      "bufferView": 2,
      "byteOffset": 455472,
      "componentType": 5126,
      "count": 37956,
      "max": [
        0.9999744296073914,
        0.9999996423721313,
        0.9999921321868896
      ],
      "min": [
        -0.9999762773513794,
        -0.9999933242797852,
        -0.9998711347579956
      ],
      "type": "VEC3"
    },
    {
      "bufferView": 1,
      "componentType": 5126,
      "count": 37956,
      "max": [
        0.8650917410850525,
        0.9996955990791321
      ],
      "min": [
        0.0005551240174099803,
        0.0006788370083086193
      ],
      "type": "VEC2"
    },
    {
      "bufferView": 0,
      "componentType": 5125,
      "count": 221184,
      "type": "SCALAR"
    },
    {
      "bufferView": 2,
      "byteOffset": 910944,
      "componentType": 5126,
      "count": 6329,
      "max": [
        0.2723577916622162,
        0.28855982422828674,
        4.561587810516357
      ],
      "min": [
        -0.2723577916622162,
        -0.28855982422828674,
        4.145593166351318
      ],
      "type": "VEC3"
    },
    {
      "bufferView": 2,
      "byteOffset": 986892,
      "componentType": 5126,
      "count": 6329,
      "max": [
        0.9999384880065918,
        0.9999596476554871,
        0.9999927282333374
      ],
      "min": [
        -0.9999384880065918,
        -0.9999596476554871,
        -0.9999789595603943
      ],
      "type": "VEC3"
    },
    {
      "bufferView": 1,
      "byteOffset": 303648,
      "componentType": 5126,
      "count": 6329,
      "max": [
        0.9999529719352722,
        0.7803220152854919
      ],
      "min": [
        4.70000013592653e-05,
        0.21967697143554688
      ],
      "type": "VEC2"
    },
    {
      "bufferView": 0,
      "byteOffset": 884736,
      "componentType": 5125,
      "count": 36864,
      "type": "SCALAR"
    },
    {
      "bufferView": 2,
      "byteOffset": 1062840,
      "componentType": 5126,
      "count": 12643,
      "max": [
        4.331877708435059,
        1.1198439598083496,
        3.9621756076812744
      ],
      "min": [
        -4.223391056060791,
        -0.8575714230537415,
        1.6474182605743408
      ],
      "type": "VEC3"
    },
    {
      "bufferView": 2,
      "byteOffset": 1214556,
      "componentType": 5126,
      "count": 12643,
      "max": [
        0.9997084736824036,
        0.9998489022254944,
        0.9999409317970276
      ],
      "min": [
        -0.998894989490509,
        -0.9998500943183899,
        -0.9998643398284912
      ],
      "type": "VEC3"
    },
    {
      "bufferView": 1,
      "byteOffset": 354280,
      "componentType": 5126,
      "count": 12643,
      "max": [
        0.8435410261154175,
        0.9999480247497559
      ],
      "min": [
        0.15639199316501617,
        6.020000000717118e-06
      ],
      "type": "VEC2"
    },
    {
      "bufferView": 0,
      "byteOffset": 1032192,
      "componentType": 5125,
      "count": 73728,
      "type": "SCALAR"
    },
    {
      "bufferView": 2,
      "byteOffset": 1366272,
      "componentType": 5126,
      "count": 65532,
      "max": [
        1.2382409572601318,
        -1.4528579711914063,
        2.7174770832061768
      ],
      "min": [
        -1.3833904266357422,
        -2.1454014778137207,
        1.7918298244476318
      ],
      "type": "VEC3"
    },
    {
      "bufferView": 2,
      "byteOffset": 2152656,
      "componentType": 5126,
      "count": 65532,
      "max": [
        0.999968409538269,
        0.9999673962593079,
        0.9999671578407288
      ],
      "min": [
        -0.9999684691429138,
        -0.9999966025352478,
        -0.9999479651451111
      ],
      "type": "VEC3"
    },
    {
      "bufferView": 1,
      "byteOffset": 455424,
      "componentType": 5126,
      "count": 65532,
      "max": [
        0.909458339214325,
        0.9990652799606323
      ],
      "min": [
        0.0003447270137257874,
        0.001008450984954834
      ],
      "type": "VEC2"
    },
    {
      "bufferView": 0,
      "byteOffset": 1327104,
      "componentType": 5125,
      "count": 381834,
      "type": "SCALAR"
    },
    {
      "bufferView": 2,
      "byteOffset": 2939040,
      "componentType": 5126,
      "count": 3249,
      "max": [
        -0.8870581984519958,
        -1.4528579711914063,
        2.7174770832061768
      ],
      "min": [
        -1.374021053314209,
        -1.9326276779174805,
        2.221198320388794
      ],
      "type": "VEC3"
    },
    {
      "bufferView": 2,
      "byteOffset": 2978028,
      "componentType": 5126,
      "count": 3249,
      "max": [
        0.9999673962593079,
        0.9998628497123718,
        0.9998511672019958
      ],
      "min": [
        -0.9622337222099304,
        -0.933407723903656,
        -0.9998566508293152
      ],
      "type": "VEC3"
    },
    {
      "bufferView": 1,
      "byteOffset": 979680,
      "componentType": 5126,
      "count": 3249,
      "max": [
        0.9032564759254456,
        0.78255695104599
      ],
      "min": [
        0.4974946081638336,
        0.0006542199989780784
      ],
      "type": "VEC2"
    },
    {
      "bufferView": 0,
      "byteOffset": 2854440,
      "componentType": 5125,
      "count": 18342,
      "type": "SCALAR"
    },
    {
      "bufferView": 2,
      "byteOffset": 3017016,
      "componentType": 5126,
      "count": 6431,
      "max": [
        1.3338998556137085,
        1.5523018836975098,
        4.278432369232178
      ],
      "min": [
        -1.3339036703109741,
        -1.4414215087890625,
        3.2527620792388916
      ],
      "type": "VEC3"
    },
    {
      "bufferView": 2,
      "byteOffset": 3094188,
      "componentType": 5126,
      "count": 6431,
      "max": [
        0.9998409152030945,
        0.9999876618385315,
        0.999515950679779
      ],
      "min": [
        -0.9998436570167542,
        -0.9999442100524902,
        -0.9999960064888
      ],
      "type": "VEC3"
    },
    {
      "bufferView": 1,
      "byteOffset": 1005672,
      "componentType": 5126,
      "count": 6431,
      "max": [
        0.9580938816070557,
        0.9999200105667114
      ],
      "min": [
        0.00042436301009729505,
        0.0003694889892358333
      ],
      "type": "VEC2"
    },
    {
      "bufferView": 0,
      "byteOffset": 2927808,
      "componentType": 5125,
      "count": 36864,
      "type": "SCALAR"
    }
  ],
  "asset": {
    "extras": {
      "author": "MarisolPerez (https://sketchfab.com/MarisolPerez)",
      "license": "CC-BY-4.0 (http://creativecommons.org/licenses/by/4.0/)",
      "source": "https://sketchfab.com/3d-models/pom-pom-purin-3-7bcb3db40d2b47ffb135509fa5b395de",
      "title": "Pom Pom Purin 3"
    },
    "generator": "Sketchfab-15.49.0",
    "version": "2.0"
  },
  "bufferViews": [
    {
      "buffer": 0,
      "byteLength": 3075264,
      "name": "floatBufferViews",
      "target": 34963
    },
    {
      "buffer": 0,
      "byteLength": 1057120,
      "byteOffset": 3075264,
      "byteStride": 8,
      "name": "floatBufferViews",
      "target": 34962
    },
    {
      "buffer": 0,
      "byteLength": 3171360,
      "byteOffset": 4132384,
      "byteStride": 12,
      "name": "floatBufferViews",
      "target": 34962
    }
  ],
  "buffers": [
    {
      "byteLength": 7303744,
      "uri": "scene.bin"
    }
  ],
  "images": [
    {
      "uri": "textures/Body_baseColor.png"
    },
    {
      "uri": "textures/Bolita_Gorro_baseColor.png"
    },
    {
      "uri": "textures/Ears_baseColor.png"
    },
    {
      "uri": "textures/Face_baseColor.png"
    },
    {
      "uri": "textures/Face_metallicRoughness.png"
    },
    {
      "uri": "textures/Gorro_baseColor.png"
    }
  ],
  "materials": [
    {
      "doubleSided": true,
      "name": "Body",
      "pbrMetallicRoughness": {
        "baseColorTexture": {
          "index": 0
        },
        "metallicFactor": 0.0
      }
    },
    {
      "doubleSided": true,
      "name": "Bolita_Gorro",
      "pbrMetallicRoughness": {
        "baseColorTexture": {
          "index": 1
        },
        "metallicFactor": 0.0
      }
    },
    {
      "doubleSided": true,
      "name": "Ears",
      "pbrMetallicRoughness": {
        "baseColorTexture": {
          "index": 2
        },
        "metallicFactor": 0.0
      }
    },
    {
      "doubleSided": true,
      "name": "Face",
      "pbrMetallicRoughness": {
        "baseColorTexture": {
          "index": 3
        },
        "metallicRoughnessTexture": {
          "index": 4
        }
      }
    },
    {
      "doubleSided": true,
      "name": "Gorro",
      "pbrMetallicRoughness": {
        "baseColorTexture": {
          "index": 5
        },
        "metallicFactor": 0.0
      }
    }
  ],
  "meshes": [
    {
      "name": "Object_0",
      "primitives": [
        {
          "attributes": {
            "NORMAL": 1,
            "POSITION": 0,
            "TEXCOORD_0": 2
          },
          "indices": 3,
          "material": 0,
          "mode": 4
        }
      ]
    },
    {
      "name": "Object_1",
      "primitives": [
        {
          "attributes": {
            "NORMAL": 5,
            "POSITION": 4,
            "TEXCOORD_0": 6
          },
          "indices": 7,
          "material": 1,
          "mode": 4
        }
      ]
    },
    {
      "name": "Object_2",
      "primitives": [
        {
          "attributes": {
            "NORMAL": 9,
            "POSITION": 8,
            "TEXCOORD_0": 10
          },
          "indices": 11,
          "material": 2,
          "mode": 4
        }
      ]
    },
    {
      "name": "Object_3",
      "primitives": [
        {
          "attributes": {
            "NORMAL": 13,
            "POSITION": 12,
            "TEXCOORD_0": 14
          },
          "indices": 15,
          "material": 3,
          "mode": 4
        }
      ]
    },
    {
      "name": "Object_4",
      "primitives": [
        {
          "attributes": {
            "NORMAL": 17,
            "POSITION": 16,
            "TEXCOORD_0": 18
          },
          "indices": 19,
          "material": 3,
          "mode": 4
        }
      ]
    },
    {
      "name": "Object_5",
      "primitives": [
        {
          "attributes": {
            "NORMAL": 21,
            "POSITION": 20,
            "TEXCOORD_0": 22
          },
          "indices": 23,
          "material": 4,
          "mode": 4
        }
      ]
    }
  ],
  "nodes": [
    {
      "children": [
        1
      ],
      "matrix": [
        1.0,
        0.0,
        0.0,
        0.0,
        0.0,
        2.220446049250313e-16,
        -1.0,
        0.0,
        0.0,
        1.0,
        2.220446049250313e-16,
        0.0,
        0.0,
        0.0,
        0.0,
        1.0
      ],
      "name": "Sketchfab_model"
    },
    {
      "children": [
        2,
        3,
        4,
        5,
        6,
        7
      ],
      "name": "Pom Pom Purin 3.obj.cleaner.materialmerger.gles"
    },
    {
      "mesh": 0,
      "name": "Object_2"
    },
    {
      "mesh": 1,
      "name": "Object_3"
    },
    {
      "mesh": 2,
      "name": "Object_4"
    },
    {
      "mesh": 3,
      "name": "Object_5"
    },
    {
      "mesh": 4,
      "name": "Object_6"
    },
    {
      "mesh": 5,
      "name": "Object_7"
    }
  ],
  "samplers": [
    {
      "magFilter": 9729,
      "minFilter": 9987,
      "wrapS": 10497,
      "wrapT": 10497
    }
  ],
  "scene": 0,
  "scenes": [
    {
      "name": "Sketchfab_Scene",
      "nodes": [
        0
      ]
    }
  ],
  "textures": [
    {
      "sampler": 0,
      "source": 0
    },
    {
      "sampler": 0,
      "source": 1
    },
    {
      "sampler": 0,
      "source": 2
    },
    {
      "sampler": 0,
      "source": 3
    },
    {
      "sampler": 0,
      "source": 4
    },
    {
      "sampler": 0,
      "source": 5
    }
  ]
}
